<?xml version="1.0" encoding="utf-8"?>
<!-- Generator: Adobe Illustrator 23.0.3, SVG Export Plug-In . SVG Version: 6.00 Build 0)  -->
<svg version="1.1" id="Layer_1" xmlns="http://www.w3.org/2000/svg" xmlns:xlink="http://www.w3.org/1999/xlink" x="0px" y="0px"
	 viewBox="0 0 576 576" style="enable-background:new 0 0 576 576;" xml:space="preserve">
<style type="text/css">
	.st0{fill:#EEEEEE;}
	.st1{fill:#595959;stroke:#FFFFFF;stroke-width:36;stroke-miterlimit:10;}
	.st2{fill:none;stroke:#FFFFFF;stroke-width:36;stroke-miterlimit:10;}
	.st3{fill:#595959;}
	.st4{fill:#EEEEEE;stroke:#333333;stroke-width:36;stroke-miterlimit:10;}
</style>
<path class="st0" d="M105,506c-48,0-87-39-87-87V197c0-48,39-87,87-87h366c48,0,87,39,87,87v222c0,48-39,87-87,87H105z"/>
<g>
	<path class="st1" d="M471,452H105c-18.2,0-33-14.8-33-33V197c0-18.2,14.8-33,33-33h366c18.2,0,33,14.8,33,33v222
		C504,437.2,489.2,452,471,452z"/>
	<line class="st2" x1="360" y1="164" x2="360" y2="452"/>
</g>
<path class="st3" d="M471,452H105c-18.2,0-33-14.8-33-33V197c0-18.2,14.8-33,33-33h366c18.2,0,33,14.8,33,33v222
	C504,437.2,489.2,452,471,452z"/>
<g>
	<path class="st4" d="M471,452H105c-18.2,0-33-14.8-33-33V197c0-18.2,14.8-33,33-33h366c18.2,0,33,14.8,33,33v222
		C504,437.2,489.2,452,471,452z"/>
	<line class="st4" x1="360" y1="164" x2="360" y2="452"/>
</g>
</svg>
